<svg width="854" height="861" viewBox="0 0 854 861" fill="none" xmlns="http://www.w3.org/2000/svg">
<path d="M474 108.5C474 114.752 469.75 121.267 461.051 126.486C452.451 131.646 440.247 135 426.5 135C412.753 135 400.549 131.646 391.949 126.486C383.25 121.267 379 114.752 379 108.5C379 102.248 383.25 95.7333 391.949 90.5136C400.549 85.3536 412.753 82 426.5 82C440.247 82 452.451 85.3536 461.051 90.5136C469.75 95.7333 474 102.248 474 108.5Z" stroke="white" stroke-width="10"/>
<path d="M234 264.5C234 270.752 229.75 277.267 221.051 282.486C212.451 287.646 200.247 291 186.5 291C172.753 291 160.549 287.646 151.949 282.486C143.25 277.267 139 270.752 139 264.5C139 258.248 143.25 251.733 151.949 246.514C160.549 241.354 172.753 238 186.5 238C200.247 238 212.451 241.354 221.051 246.514C229.75 251.733 234 258.248 234 264.5Z" stroke="white" stroke-width="10"/>
<path d="M474 428.5C474 434.752 469.75 441.267 461.051 446.486C452.451 451.646 440.247 455 426.5 455C412.753 455 400.549 451.646 391.949 446.486C383.25 441.267 379 434.752 379 428.5C379 422.248 383.25 415.733 391.949 410.514C400.549 405.354 412.753 402 426.5 402C440.247 402 452.451 405.354 461.051 410.514C469.75 415.733 474 422.248 474 428.5Z" stroke="white" stroke-width="10"/>
<rect y="16.0835" width="480.102" height="471.574" transform="matrix(0.844144 0.536117 -0.844144 0.536117 436.978 7.46087)" stroke="white" stroke-width="30"/>
<path d="M398.79 132.548L227.454 251.759C225.188 253.336 222.072 252.777 220.494 250.511L211.927 238.198L383.263 118.986C385.53 117.409 388.646 117.968 390.223 120.235L398.79 132.548Z" fill="white"/>
<path d="M219.104 278.15C220.699 275.895 223.819 275.36 226.073 276.954L402.913 401.998L394.253 414.245C392.658 416.5 389.538 417.035 387.283 415.441L210.444 290.398L219.104 278.15Z" fill="white"/>
<path d="M467 418.5L541.5 366H683.5" stroke="white" stroke-width="20"/>
<path d="M467 123L541.5 175.5H683.5" stroke="white" stroke-width="20"/>
<path d="M842 435L427 699.5V577.5L752.5 377L842 435Z" fill="white"/>
<path d="M12 435L427 699.5V577.5L101.5 377L12 435Z" fill="white"/>
<path d="M842 596L427 860.5V738.5L752.5 538L842 596Z" fill="white"/>
<path d="M12 596L427 860.5V738.5L101.5 538L12 596Z" fill="white"/>
</svg>
