<svg width="24" height="24" viewBox="0 0 24 24" fill="none" xmlns="http://www.w3.org/2000/svg">
<rect x="12" y="1.70711" width="14.5563" height="14.5563" transform="rotate(45 12 1.70711)" stroke="black"/>
<circle cx="12" cy="6" r="1" stroke="black" stroke-width="0.5"/>
<circle cx="12" cy="18" r="1" stroke="black" stroke-width="0.5"/>
<circle cx="6" cy="12" r="1" stroke="black" stroke-width="0.5"/>
<path d="M7 11L11 7" stroke="black" stroke-width="0.75" stroke-linecap="square"/>
<path d="M12.7348 16.7348L12.4697 17L13 17.5303L13.2652 17.2652L12.7348 16.7348ZM16.2652 14.2652C16.4116 14.1187 16.4116 13.8813 16.2652 13.7348C16.1187 13.5884 15.8813 13.5884 15.7348 13.7348L16.2652 14.2652ZM13.2652 17.2652L16.2652 14.2652L15.7348 13.7348L12.7348 16.7348L13.2652 17.2652Z" fill="black"/>
<path d="M13.2652 6.73483L13 6.46967L12.4697 7L12.7348 7.26517L13.2652 6.73483ZM15.7348 10.2652C15.8813 10.4116 16.1187 10.4116 16.2652 10.2652C16.4116 10.1187 16.4116 9.88128 16.2652 9.73483L15.7348 10.2652ZM12.7348 7.26517L15.7348 10.2652L16.2652 9.73483L13.2652 6.73483L12.7348 7.26517Z" fill="black"/>
<path d="M7 13L11 17" stroke="black" stroke-width="0.75" stroke-linecap="square"/>
<path d="M16 10H20" stroke="black" stroke-width="0.75"/>
<path d="M16 14H20" stroke="black" stroke-width="0.75"/>
<path d="M2 11.625C1.79289 11.625 1.625 11.7929 1.625 12C1.625 12.2071 1.79289 12.375 2 12.375V11.625ZM2 12.375H5V11.625H2V12.375Z" fill="black"/>
</svg>
