<svg xmlns="http://www.w3.org/2000/svg" width="889" height="889" fill="none" viewBox="0 0 889 889">
  <g clip-path="url(#a)">
    <path fill="#142539" d="M0 0h889v889H0z"/>
    <path fill="#fff" stroke="#142539" stroke-width="30" d="M0-16.084h525.511v525.511H0z" transform="matrix(.84414 .53611 -.84414 .53611 422.706 337.056)"/>
    <path fill="#fff" stroke="#142539" stroke-width="30" d="M0-16.084h535.838v535.838H0z" transform="matrix(.84414 .53611 -.84414 .53611 431.423 170.172)"/>
    <path fill="#142539" d="m441.402 79 402.523 255.642L445 587.997 42.478 332.356z"/>
    <path fill="#142539" stroke="#fff" stroke-width="30" d="M0 16.084h480.102v471.574H0z" transform="matrix(.84414 .53611 -.84414 .53611 454.977 21.461)"/>
    <path stroke="#fff" stroke-width="40" d="M597.5 132s-51.5 44.5-69 44.5S446 120 446 120L204.5 282.5 519 493"/>
    <path fill="#142539" stroke="#fff" stroke-width="10" d="M492 122.5c0 6.252-4.25 12.767-12.949 17.986-8.6 5.16-20.804 8.514-34.551 8.514-13.747 0-25.951-3.354-34.551-8.514C401.25 135.267 397 128.752 397 122.5c0-6.252 4.25-12.767 12.949-17.986 8.6-5.16 20.804-8.514 34.551-8.514 13.747 0 25.951 3.354 34.551 8.514C487.75 109.733 492 116.248 492 122.5Zm-240 156c0 6.252-4.25 12.767-12.949 17.986-8.6 5.16-20.804 8.514-34.551 8.514-13.747 0-25.951-3.354-34.551-8.514C161.25 291.267 157 284.752 157 278.5c0-6.252 4.25-12.767 12.949-17.986 8.6-5.16 20.804-8.514 34.551-8.514 13.747 0 25.951 3.354 34.551 8.514C247.75 265.733 252 272.248 252 278.5Zm240 164c0 6.252-4.25 12.767-12.949 17.986-8.6 5.16-20.804 8.514-34.551 8.514-13.747 0-25.951-3.354-34.551-8.514C401.25 455.267 397 448.752 397 442.5c0-6.252 4.25-12.767 12.949-17.986 8.6-5.16 20.804-8.514 34.551-8.514 13.747 0 25.951 3.354 34.551 8.514C487.75 429.733 492 436.248 492 442.5Z"/>
  </g>
  <defs>
    <clipPath id="a">
      <path fill="#fff" d="M0 0h889v889H0z"/>
    </clipPath>
  </defs>
</svg>
