<svg width="825" height="884" viewBox="0 0 825 884" fill="none" xmlns="http://www.w3.org/2000/svg">
<line x1="734" y1="305.5" x2="81" y2="305.5" stroke="#DE5340" stroke-opacity="0.5" stroke-width="5"/>
<circle cx="249.742" cy="161.006" r="22.8702" fill="#4456B7" fill-opacity="0.5"/>
<circle cx="249.742" cy="302.801" r="22.8702" fill="#4456B7" fill-opacity="0.5"/>
<circle cx="397.026" cy="302.801" r="22.8702" fill="#DE5340" fill-opacity="0.5"/>
<circle cx="397.026" cy="302.801" r="22.3702" stroke="#DE5340" stroke-opacity="0.5"/>
<circle cx="249.742" cy="451" r="22.8702" fill="#4456B7" fill-opacity="0.5"/>
<circle cx="249.742" cy="451" r="22.3702" stroke="#4456B7" stroke-opacity="0.5"/>
<circle cx="249.742" cy="602.858" r="22.8702" fill="#4456B7" fill-opacity="0.5"/>
<circle cx="249.742" cy="602.858" r="22.3702" stroke="#4456B7" stroke-opacity="0.5"/>
<circle cx="380.56" cy="729.101" r="22.8702" fill="#4456B7" fill-opacity="0.5"/>
<circle cx="380.56" cy="729.101" r="22.3702" stroke="#4456B7" stroke-opacity="0.5"/>
<circle cx="511.377" cy="860.834" r="22.8702" fill="#4456B7" fill-opacity="0.5"/>
<circle cx="511.377" cy="860.834" r="22.3702" stroke="#4456B7" stroke-opacity="0.5"/>
<circle cx="87.8215" cy="302.801" r="22.8702" fill="#DE5340" fill-opacity="0.5"/>
<circle cx="87.8215" cy="302.801" r="22.3702" stroke="#DE5340" stroke-opacity="0.5"/>
<circle cx="568.095" cy="302.801" r="22.8702" fill="#DE5340" fill-opacity="0.5"/>
<circle cx="568.095" cy="302.801" r="22.3702" stroke="#DE5340" stroke-opacity="0.5"/>
<circle cx="733.675" cy="302.801" r="22.3702" fill="#DE5340" stroke="#DE5340"/>
<circle cx="733.675" cy="302.801" r="22.8702" fill="#DE5340" fill-opacity="0.5"/>
<circle cx="733.675" cy="302.801" r="22.3702" stroke="#DE5340" stroke-opacity="0.5"/>
<circle cx="249.742" cy="25.6146" r="22.8702" fill="#4456B7" fill-opacity="0.5"/>
<line x1="250.413" y1="21.9554" x2="250.413" y2="602.858" stroke="#4456B7" stroke-opacity="0.5" stroke-width="5"/>
<line x1="259.743" y1="609.323" x2="510.743" y2="860.323" stroke="#4456B7" stroke-opacity="0.5" stroke-width="5"/>
<path d="M143.303 32H139.712V20.3636H143.462C144.591 20.3636 145.557 20.5966 146.36 21.0625C147.163 21.5246 147.778 22.1894 148.206 23.0568C148.634 23.9205 148.848 24.9545 148.848 26.1591C148.848 27.3712 148.632 28.4148 148.201 29.2898C147.769 30.161 147.14 30.8314 146.314 31.3011C145.488 31.767 144.485 32 143.303 32ZM141.121 30.75H143.212C144.174 30.75 144.971 30.5644 145.604 30.1932C146.236 29.822 146.708 29.2936 147.019 28.608C147.329 27.9223 147.485 27.1061 147.485 26.1591C147.485 25.2197 147.331 24.411 147.024 23.733C146.718 23.0511 146.259 22.5284 145.649 22.1648C145.04 21.7973 144.28 21.6136 143.371 21.6136H141.121V30.75ZM152.212 20.3636V21.3864C152.212 21.697 152.155 22.0284 152.041 22.3807C151.932 22.7292 151.769 23.0682 151.553 23.3977C151.341 23.7235 151.083 24.0076 150.78 24.25L150.053 23.6591C150.291 23.3182 150.498 22.964 150.672 22.5966C150.85 22.2254 150.939 21.8295 150.939 21.4091V20.3636H152.212ZM155.574 20.3636V32H154.165V20.3636H155.574ZM158.399 32V20.3636H159.74V24.6591H159.854C159.952 24.5076 160.089 24.3144 160.263 24.0795C160.441 23.8409 160.695 23.6288 161.024 23.4432C161.358 23.2538 161.808 23.1591 162.377 23.1591C163.112 23.1591 163.759 23.3428 164.32 23.7102C164.88 24.0777 165.318 24.5985 165.632 25.2727C165.947 25.947 166.104 26.7424 166.104 27.6591C166.104 28.5833 165.947 29.3845 165.632 30.0625C165.318 30.7367 164.882 31.2595 164.326 31.6307C163.769 31.9981 163.127 32.1818 162.399 32.1818C161.839 32.1818 161.39 32.089 161.053 31.9034C160.716 31.714 160.456 31.5 160.274 31.2614C160.093 31.0189 159.952 30.8182 159.854 30.6591H159.695V32H158.399ZM159.718 27.6364C159.718 28.2955 159.814 28.8769 160.007 29.3807C160.201 29.8807 160.483 30.2727 160.854 30.5568C161.225 30.8371 161.68 30.9773 162.218 30.9773C162.778 30.9773 163.246 30.8295 163.621 30.5341C164 30.2348 164.284 29.8333 164.473 29.3295C164.666 28.822 164.763 28.2576 164.763 27.6364C164.763 27.0227 164.668 26.4697 164.479 25.9773C164.293 25.4811 164.011 25.089 163.632 24.8011C163.257 24.5095 162.786 24.3636 162.218 24.3636C161.672 24.3636 161.214 24.5019 160.843 24.7784C160.471 25.0511 160.191 25.4337 160.002 25.9261C159.812 26.4148 159.718 26.9848 159.718 27.6364ZM171.814 32.1818C170.973 32.1818 170.248 31.9962 169.638 31.625C169.032 31.25 168.564 30.7273 168.235 30.0568C167.909 29.3826 167.746 28.5985 167.746 27.7045C167.746 26.8106 167.909 26.0227 168.235 25.3409C168.564 24.6553 169.022 24.1212 169.61 23.7386C170.201 23.3523 170.89 23.1591 171.678 23.1591C172.132 23.1591 172.581 23.2348 173.024 23.3864C173.468 23.5379 173.871 23.7841 174.235 24.125C174.598 24.4621 174.888 24.9091 175.104 25.4659C175.32 26.0227 175.428 26.7083 175.428 27.5227V28.0909H168.701V26.9318H174.064C174.064 26.4394 173.966 26 173.769 25.6136C173.576 25.2273 173.299 24.9223 172.939 24.6989C172.583 24.4754 172.163 24.3636 171.678 24.3636C171.144 24.3636 170.682 24.4962 170.291 24.7614C169.905 25.0227 169.608 25.3636 169.399 25.7841C169.191 26.2045 169.087 26.6553 169.087 27.1364V27.9091C169.087 28.5682 169.201 29.1269 169.428 29.5852C169.659 30.0398 169.979 30.3864 170.388 30.625C170.797 30.8598 171.272 30.9773 171.814 30.9773C172.166 30.9773 172.485 30.928 172.769 30.8295C173.057 30.7273 173.305 30.5758 173.513 30.375C173.721 30.1705 173.882 29.9167 173.996 29.6136L175.291 29.9773C175.155 30.4167 174.926 30.803 174.604 31.1364C174.282 31.4659 173.884 31.7235 173.411 31.9091C172.937 32.0909 172.405 32.1818 171.814 32.1818ZM177.468 32V23.2727H178.763V24.5909H178.854C179.013 24.1591 179.301 23.8087 179.718 23.5398C180.134 23.2708 180.604 23.1364 181.127 23.1364C181.225 23.1364 181.348 23.1383 181.496 23.142C181.644 23.1458 181.755 23.1515 181.831 23.1591V24.5227C181.786 24.5114 181.682 24.4943 181.519 24.4716C181.36 24.4451 181.191 24.4318 181.013 24.4318C180.589 24.4318 180.21 24.5208 179.877 24.6989C179.547 24.8731 179.286 25.1155 179.093 25.4261C178.903 25.733 178.808 26.0833 178.808 26.4773V32H177.468ZM190.823 23.2727L187.595 32H186.232L183.004 23.2727H184.459L186.868 30.2273H186.959L189.368 23.2727H190.823ZM192.593 32V23.2727H193.933V32H192.593ZM193.274 21.8182C193.013 21.8182 192.788 21.7292 192.598 21.5511C192.413 21.3731 192.32 21.1591 192.32 20.9091C192.32 20.6591 192.413 20.4451 192.598 20.267C192.788 20.089 193.013 20 193.274 20C193.536 20 193.759 20.089 193.945 20.267C194.134 20.4451 194.229 20.6591 194.229 20.9091C194.229 21.1591 194.134 21.3731 193.945 21.5511C193.759 21.7292 193.536 21.8182 193.274 21.8182ZM197.73 20.3636V32H196.389V20.3636H197.73ZM201.527 20.3636V32H200.186V20.3636H201.527ZM207.642 32.1818C206.801 32.1818 206.076 31.9962 205.466 31.625C204.86 31.25 204.392 30.7273 204.063 30.0568C203.737 29.3826 203.574 28.5985 203.574 27.7045C203.574 26.8106 203.737 26.0227 204.063 25.3409C204.392 24.6553 204.851 24.1212 205.438 23.7386C206.029 23.3523 206.718 23.1591 207.506 23.1591C207.96 23.1591 208.409 23.2348 208.853 23.3864C209.296 23.5379 209.699 23.7841 210.063 24.125C210.426 24.4621 210.716 24.9091 210.932 25.4659C211.148 26.0227 211.256 26.7083 211.256 27.5227V28.0909H204.529V26.9318H209.892C209.892 26.4394 209.794 26 209.597 25.6136C209.404 25.2273 209.127 24.9223 208.767 24.6989C208.411 24.4754 207.991 24.3636 207.506 24.3636C206.972 24.3636 206.51 24.4962 206.12 24.7614C205.733 25.0227 205.436 25.3636 205.228 25.7841C205.019 26.2045 204.915 26.6553 204.915 27.1364V27.9091C204.915 28.5682 205.029 29.1269 205.256 29.5852C205.487 30.0398 205.807 30.3864 206.216 30.625C206.625 30.8598 207.101 30.9773 207.642 30.9773C207.995 30.9773 208.313 30.928 208.597 30.8295C208.885 30.7273 209.133 30.5758 209.341 30.375C209.549 30.1705 209.71 29.9167 209.824 29.6136L211.12 29.9773C210.983 30.4167 210.754 30.803 210.432 31.1364C210.11 31.4659 209.712 31.7235 209.239 31.9091C208.765 32.0909 208.233 32.1818 207.642 32.1818Z" fill="black"/>
<path d="M169.56 167.391V155.755H176.537V157.005H170.969V160.937H176.014V162.187H170.969V167.391H169.56ZM181.337 167.596C180.784 167.596 180.282 167.492 179.831 167.284C179.38 167.071 179.022 166.766 178.757 166.369C178.492 165.967 178.359 165.482 178.359 164.914C178.359 164.414 178.458 164.009 178.655 163.698C178.852 163.384 179.115 163.138 179.445 162.96C179.774 162.782 180.138 162.649 180.536 162.562C180.937 162.471 181.341 162.399 181.746 162.346C182.276 162.278 182.706 162.227 183.036 162.193C183.369 162.155 183.611 162.092 183.763 162.005C183.918 161.918 183.996 161.766 183.996 161.551V161.505C183.996 160.945 183.842 160.509 183.536 160.198C183.233 159.888 182.772 159.732 182.155 159.732C181.515 159.732 181.013 159.873 180.649 160.153C180.286 160.433 180.03 160.732 179.882 161.051L178.609 160.596C178.837 160.066 179.14 159.653 179.519 159.357C179.901 159.058 180.318 158.85 180.769 158.732C181.223 158.611 181.67 158.551 182.109 158.551C182.39 158.551 182.712 158.585 183.075 158.653C183.443 158.717 183.797 158.852 184.138 159.056C184.483 159.261 184.769 159.57 184.996 159.982C185.223 160.395 185.337 160.948 185.337 161.641V167.391H183.996V166.21H183.928C183.837 166.399 183.685 166.602 183.473 166.818C183.261 167.034 182.979 167.217 182.626 167.369C182.274 167.52 181.844 167.596 181.337 167.596ZM181.541 166.391C182.072 166.391 182.519 166.287 182.882 166.079C183.25 165.871 183.526 165.602 183.712 165.272C183.901 164.943 183.996 164.596 183.996 164.232V163.005C183.939 163.073 183.814 163.136 183.621 163.193C183.431 163.246 183.212 163.293 182.962 163.335C182.716 163.373 182.475 163.407 182.24 163.437C182.009 163.463 181.822 163.486 181.678 163.505C181.329 163.551 181.003 163.624 180.7 163.727C180.401 163.825 180.159 163.975 179.973 164.176C179.791 164.373 179.7 164.641 179.7 164.982C179.7 165.448 179.873 165.801 180.217 166.039C180.566 166.274 181.007 166.391 181.541 166.391ZM187.966 167.391V155.755H189.307V160.051H189.421C189.519 159.899 189.655 159.706 189.83 159.471C190.008 159.232 190.261 159.02 190.591 158.835C190.924 158.645 191.375 158.551 191.943 158.551C192.678 158.551 193.326 158.734 193.886 159.102C194.447 159.469 194.885 159.99 195.199 160.664C195.513 161.338 195.671 162.134 195.671 163.051C195.671 163.975 195.513 164.776 195.199 165.454C194.885 166.128 194.449 166.651 193.892 167.022C193.335 167.39 192.693 167.573 191.966 167.573C191.405 167.573 190.957 167.48 190.619 167.295C190.282 167.105 190.023 166.891 189.841 166.653C189.659 166.41 189.519 166.21 189.421 166.051H189.261V167.391H187.966ZM189.284 163.028C189.284 163.687 189.381 164.268 189.574 164.772C189.767 165.272 190.049 165.664 190.421 165.948C190.792 166.229 191.246 166.369 191.784 166.369C192.345 166.369 192.813 166.221 193.188 165.926C193.566 165.626 193.85 165.225 194.04 164.721C194.233 164.213 194.33 163.649 194.33 163.028C194.33 162.414 194.235 161.861 194.046 161.369C193.86 160.873 193.578 160.48 193.199 160.193C192.824 159.901 192.352 159.755 191.784 159.755C191.239 159.755 190.78 159.893 190.409 160.17C190.038 160.443 189.758 160.825 189.568 161.318C189.379 161.806 189.284 162.376 189.284 163.028ZM197.722 167.391V158.664H199.017V159.982H199.108C199.267 159.551 199.555 159.2 199.972 158.931C200.388 158.662 200.858 158.528 201.381 158.528C201.479 158.528 201.602 158.53 201.75 158.534C201.898 158.537 202.01 158.543 202.085 158.551V159.914C202.04 159.903 201.936 159.886 201.773 159.863C201.614 159.837 201.445 159.823 201.267 159.823C200.843 159.823 200.464 159.912 200.131 160.09C199.801 160.265 199.54 160.507 199.347 160.818C199.157 161.124 199.063 161.475 199.063 161.869V167.391H197.722ZM207.068 167.573C206.227 167.573 205.502 167.388 204.892 167.016C204.286 166.641 203.818 166.119 203.489 165.448C203.163 164.774 203 163.99 203 163.096C203 162.202 203.163 161.414 203.489 160.732C203.818 160.047 204.277 159.513 204.864 159.13C205.455 158.744 206.144 158.551 206.932 158.551C207.386 158.551 207.835 158.626 208.278 158.778C208.722 158.929 209.125 159.176 209.489 159.516C209.852 159.854 210.142 160.301 210.358 160.857C210.574 161.414 210.682 162.1 210.682 162.914V163.482H203.955V162.323H209.318C209.318 161.831 209.22 161.391 209.023 161.005C208.83 160.619 208.553 160.314 208.193 160.09C207.837 159.867 207.417 159.755 206.932 159.755C206.398 159.755 205.936 159.888 205.546 160.153C205.159 160.414 204.862 160.755 204.653 161.176C204.445 161.596 204.341 162.047 204.341 162.528V163.301C204.341 163.96 204.455 164.518 204.682 164.977C204.913 165.431 205.233 165.778 205.642 166.016C206.051 166.251 206.527 166.369 207.068 166.369C207.421 166.369 207.739 166.32 208.023 166.221C208.311 166.119 208.559 165.967 208.767 165.766C208.975 165.562 209.136 165.308 209.25 165.005L210.546 165.369C210.409 165.808 210.18 166.195 209.858 166.528C209.536 166.857 209.138 167.115 208.665 167.301C208.191 167.482 207.659 167.573 207.068 167.573Z" fill="black"/>
<path d="M115.535 456.471H111.944V444.834H115.694C116.822 444.834 117.788 445.067 118.591 445.533C119.394 445.995 120.01 446.66 120.438 447.527C120.866 448.391 121.08 449.425 121.08 450.63C121.08 451.842 120.864 452.885 120.432 453.76C120 454.632 119.372 455.302 118.546 455.772C117.72 456.238 116.716 456.471 115.535 456.471ZM113.353 455.221H115.444C116.406 455.221 117.203 455.035 117.836 454.664C118.468 454.293 118.94 453.764 119.25 453.079C119.561 452.393 119.716 451.577 119.716 450.63C119.716 449.69 119.563 448.882 119.256 448.204C118.949 447.522 118.491 446.999 117.881 446.635C117.271 446.268 116.512 446.084 115.603 446.084H113.353V455.221ZM126.921 456.652C126.08 456.652 125.355 456.467 124.745 456.096C124.139 455.721 123.671 455.198 123.341 454.527C123.016 453.853 122.853 453.069 122.853 452.175C122.853 451.281 123.016 450.493 123.341 449.811C123.671 449.126 124.129 448.592 124.716 448.209C125.307 447.823 125.997 447.63 126.785 447.63C127.239 447.63 127.688 447.705 128.131 447.857C128.574 448.008 128.978 448.255 129.341 448.596C129.705 448.933 129.995 449.38 130.211 449.936C130.427 450.493 130.535 451.179 130.535 451.993V452.561H123.807V451.402H129.171C129.171 450.91 129.072 450.471 128.875 450.084C128.682 449.698 128.406 449.393 128.046 449.169C127.69 448.946 127.269 448.834 126.785 448.834C126.25 448.834 125.788 448.967 125.398 449.232C125.012 449.493 124.714 449.834 124.506 450.255C124.298 450.675 124.194 451.126 124.194 451.607V452.38C124.194 453.039 124.307 453.597 124.535 454.056C124.766 454.51 125.086 454.857 125.495 455.096C125.904 455.33 126.379 455.448 126.921 455.448C127.273 455.448 127.591 455.399 127.875 455.3C128.163 455.198 128.411 455.046 128.62 454.846C128.828 454.641 128.989 454.387 129.103 454.084L130.398 454.448C130.262 454.887 130.033 455.274 129.711 455.607C129.389 455.936 128.991 456.194 128.518 456.38C128.044 456.561 127.512 456.652 126.921 456.652ZM137.574 450.857V452.107H132.483V450.857H137.574ZM149.479 448.471H148.07C147.987 448.065 147.841 447.709 147.633 447.402C147.428 447.096 147.178 446.838 146.883 446.63C146.591 446.418 146.267 446.258 145.911 446.152C145.555 446.046 145.184 445.993 144.797 445.993C144.093 445.993 143.455 446.171 142.883 446.527C142.314 446.883 141.862 447.408 141.525 448.101C141.191 448.794 141.025 449.645 141.025 450.652C141.025 451.66 141.191 452.51 141.525 453.204C141.862 453.897 142.314 454.421 142.883 454.777C143.455 455.133 144.093 455.311 144.797 455.311C145.184 455.311 145.555 455.258 145.911 455.152C146.267 455.046 146.591 454.889 146.883 454.681C147.178 454.469 147.428 454.209 147.633 453.902C147.841 453.592 147.987 453.236 148.07 452.834H149.479C149.373 453.429 149.18 453.961 148.9 454.431C148.619 454.901 148.271 455.3 147.854 455.63C147.437 455.955 146.97 456.204 146.451 456.374C145.936 456.544 145.384 456.63 144.797 456.63C143.805 456.63 142.922 456.387 142.15 455.902C141.377 455.418 140.769 454.728 140.326 453.834C139.883 452.94 139.661 451.88 139.661 450.652C139.661 449.425 139.883 448.365 140.326 447.471C140.769 446.577 141.377 445.887 142.15 445.402C142.922 444.918 143.805 444.675 144.797 444.675C145.384 444.675 145.936 444.76 146.451 444.931C146.97 445.101 147.437 445.351 147.854 445.681C148.271 446.007 148.619 446.404 148.9 446.874C149.18 447.34 149.373 447.872 149.479 448.471ZM154.143 456.675C153.589 456.675 153.088 456.571 152.637 456.363C152.186 456.151 151.828 455.846 151.563 455.448C151.298 455.046 151.165 454.561 151.165 453.993C151.165 453.493 151.264 453.088 151.461 452.777C151.658 452.463 151.921 452.217 152.25 452.039C152.58 451.861 152.944 451.728 153.341 451.641C153.743 451.55 154.146 451.478 154.552 451.425C155.082 451.357 155.512 451.306 155.841 451.272C156.175 451.234 156.417 451.171 156.569 451.084C156.724 450.997 156.802 450.846 156.802 450.63V450.584C156.802 450.024 156.648 449.588 156.341 449.277C156.038 448.967 155.578 448.811 154.961 448.811C154.321 448.811 153.819 448.952 153.455 449.232C153.091 449.512 152.836 449.811 152.688 450.13L151.415 449.675C151.643 449.145 151.946 448.732 152.324 448.436C152.707 448.137 153.124 447.929 153.574 447.811C154.029 447.69 154.476 447.63 154.915 447.63C155.196 447.63 155.518 447.664 155.881 447.732C156.249 447.796 156.603 447.931 156.944 448.135C157.288 448.34 157.574 448.649 157.802 449.061C158.029 449.474 158.143 450.027 158.143 450.721V456.471H156.802V455.289H156.733C156.643 455.478 156.491 455.681 156.279 455.897C156.067 456.113 155.785 456.296 155.432 456.448C155.08 456.599 154.65 456.675 154.143 456.675ZM154.347 455.471C154.877 455.471 155.324 455.366 155.688 455.158C156.055 454.95 156.332 454.681 156.518 454.351C156.707 454.022 156.802 453.675 156.802 453.311V452.084C156.745 452.152 156.62 452.215 156.427 452.272C156.237 452.325 156.018 452.372 155.768 452.414C155.521 452.452 155.281 452.486 155.046 452.516C154.815 452.543 154.627 452.565 154.483 452.584C154.135 452.63 153.809 452.704 153.506 452.806C153.207 452.904 152.964 453.054 152.779 453.255C152.597 453.452 152.506 453.721 152.506 454.061C152.506 454.527 152.678 454.88 153.023 455.118C153.372 455.353 153.813 455.471 154.347 455.471ZM166.772 449.698L165.567 450.039C165.491 449.838 165.38 449.643 165.232 449.454C165.088 449.26 164.891 449.101 164.641 448.976C164.391 448.851 164.071 448.789 163.681 448.789C163.147 448.789 162.702 448.912 162.346 449.158C161.993 449.401 161.817 449.709 161.817 450.084C161.817 450.418 161.938 450.681 162.181 450.874C162.423 451.067 162.802 451.228 163.317 451.357L164.613 451.675C165.393 451.865 165.974 452.154 166.357 452.544C166.74 452.931 166.931 453.429 166.931 454.039C166.931 454.539 166.787 454.986 166.499 455.38C166.215 455.774 165.817 456.084 165.306 456.311C164.794 456.539 164.2 456.652 163.522 456.652C162.632 456.652 161.895 456.459 161.312 456.073C160.728 455.686 160.359 455.122 160.204 454.38L161.476 454.061C161.598 454.531 161.827 454.883 162.164 455.118C162.505 455.353 162.95 455.471 163.499 455.471C164.124 455.471 164.62 455.338 164.988 455.073C165.359 454.804 165.544 454.482 165.544 454.107C165.544 453.804 165.438 453.55 165.226 453.346C165.014 453.137 164.688 452.982 164.249 452.88L162.794 452.539C161.995 452.349 161.408 452.056 161.033 451.658C160.662 451.257 160.476 450.755 160.476 450.152C160.476 449.66 160.615 449.224 160.891 448.846C161.171 448.467 161.552 448.169 162.033 447.954C162.518 447.738 163.067 447.63 163.681 447.63C164.544 447.63 165.223 447.819 165.715 448.198C166.211 448.577 166.563 449.077 166.772 449.698ZM172.745 447.743V448.88H168.222V447.743H172.745ZM169.54 445.652H170.881V453.971C170.881 454.349 170.936 454.633 171.046 454.823C171.16 455.008 171.303 455.133 171.478 455.198C171.656 455.258 171.843 455.289 172.04 455.289C172.188 455.289 172.309 455.281 172.404 455.266C172.499 455.247 172.574 455.232 172.631 455.221L172.904 456.425C172.813 456.459 172.686 456.493 172.523 456.527C172.36 456.565 172.154 456.584 171.904 456.584C171.525 456.584 171.154 456.503 170.79 456.34C170.43 456.177 170.131 455.929 169.893 455.596C169.658 455.262 169.54 454.842 169.54 454.334V445.652ZM178.327 456.652C177.486 456.652 176.761 456.467 176.151 456.096C175.545 455.721 175.077 455.198 174.748 454.527C174.422 453.853 174.259 453.069 174.259 452.175C174.259 451.281 174.422 450.493 174.748 449.811C175.077 449.126 175.536 448.592 176.123 448.209C176.714 447.823 177.403 447.63 178.191 447.63C178.645 447.63 179.094 447.705 179.537 447.857C179.981 448.008 180.384 448.255 180.748 448.596C181.111 448.933 181.401 449.38 181.617 449.936C181.833 450.493 181.941 451.179 181.941 451.993V452.561H175.214V451.402H180.577C180.577 450.91 180.479 450.471 180.282 450.084C180.089 449.698 179.812 449.393 179.452 449.169C179.096 448.946 178.676 448.834 178.191 448.834C177.657 448.834 177.195 448.967 176.804 449.232C176.418 449.493 176.121 449.834 175.912 450.255C175.704 450.675 175.6 451.126 175.6 451.607V452.38C175.6 453.039 175.714 453.597 175.941 454.056C176.172 454.51 176.492 454.857 176.901 455.096C177.31 455.33 177.786 455.448 178.327 455.448C178.679 455.448 178.998 455.399 179.282 455.3C179.57 455.198 179.818 455.046 180.026 454.846C180.234 454.641 180.395 454.387 180.509 454.084L181.804 454.448C181.668 454.887 181.439 455.274 181.117 455.607C180.795 455.936 180.397 456.194 179.924 456.38C179.45 456.561 178.918 456.652 178.327 456.652ZM185.321 444.834V456.471H183.981V444.834H185.321ZM189.118 451.221V456.471H187.777V447.743H189.073V449.107H189.187C189.391 448.664 189.702 448.308 190.118 448.039C190.535 447.766 191.073 447.63 191.732 447.63C192.323 447.63 192.84 447.751 193.283 447.993C193.726 448.232 194.071 448.596 194.317 449.084C194.563 449.569 194.687 450.183 194.687 450.925V456.471H193.346V451.016C193.346 450.33 193.168 449.796 192.812 449.414C192.455 449.027 191.967 448.834 191.346 448.834C190.918 448.834 190.535 448.927 190.198 449.113C189.865 449.298 189.601 449.569 189.408 449.925C189.215 450.281 189.118 450.713 189.118 451.221ZM199.705 456.675C199.152 456.675 198.65 456.571 198.199 456.363C197.749 456.151 197.391 455.846 197.125 455.448C196.86 455.046 196.728 454.561 196.728 453.993C196.728 453.493 196.826 453.088 197.023 452.777C197.22 452.463 197.483 452.217 197.813 452.039C198.143 451.861 198.506 451.728 198.904 451.641C199.305 451.55 199.709 451.478 200.114 451.425C200.644 451.357 201.074 451.306 201.404 451.272C201.737 451.234 201.98 451.171 202.131 451.084C202.286 450.997 202.364 450.846 202.364 450.63V450.584C202.364 450.024 202.211 449.588 201.904 449.277C201.601 448.967 201.141 448.811 200.523 448.811C199.883 448.811 199.381 448.952 199.018 449.232C198.654 449.512 198.398 449.811 198.25 450.13L196.978 449.675C197.205 449.145 197.508 448.732 197.887 448.436C198.269 448.137 198.686 447.929 199.137 447.811C199.591 447.69 200.038 447.63 200.478 447.63C200.758 447.63 201.08 447.664 201.444 447.732C201.811 447.796 202.165 447.931 202.506 448.135C202.851 448.34 203.137 448.649 203.364 449.061C203.591 449.474 203.705 450.027 203.705 450.721V456.471H202.364V455.289H202.296C202.205 455.478 202.053 455.681 201.841 455.897C201.629 456.113 201.347 456.296 200.995 456.448C200.643 456.599 200.213 456.675 199.705 456.675ZM199.91 455.471C200.44 455.471 200.887 455.366 201.25 455.158C201.618 454.95 201.894 454.681 202.08 454.351C202.269 454.022 202.364 453.675 202.364 453.311V452.084C202.307 452.152 202.182 452.215 201.989 452.272C201.8 452.325 201.58 452.372 201.33 452.414C201.084 452.452 200.843 452.486 200.608 452.516C200.377 452.543 200.19 452.565 200.046 452.584C199.697 452.63 199.372 452.704 199.069 452.806C198.769 452.904 198.527 453.054 198.341 453.255C198.16 453.452 198.069 453.721 198.069 454.061C198.069 454.527 198.241 454.88 198.586 455.118C198.934 455.353 199.375 455.471 199.91 455.471ZM211.652 452.902V447.743H212.993V456.471H211.652V454.993H211.562C211.357 455.436 211.039 455.813 210.607 456.124C210.175 456.431 209.63 456.584 208.971 456.584C208.425 456.584 207.94 456.465 207.516 456.226C207.092 455.984 206.759 455.62 206.516 455.135C206.274 454.647 206.152 454.031 206.152 453.289V447.743H207.493V453.198C207.493 453.834 207.671 454.342 208.027 454.721C208.387 455.099 208.846 455.289 209.402 455.289C209.736 455.289 210.075 455.204 210.419 455.033C210.768 454.863 211.06 454.601 211.294 454.249C211.533 453.897 211.652 453.448 211.652 452.902Z" fill="black"/>
<path d="M183.481 611.073V599.437H187.413C188.326 599.437 189.072 599.601 189.652 599.931C190.235 600.257 190.667 600.698 190.947 601.255C191.227 601.812 191.368 602.433 191.368 603.118C191.368 603.804 191.227 604.427 190.947 604.988C190.671 605.548 190.243 605.995 189.663 606.329C189.084 606.658 188.341 606.823 187.436 606.823H184.618V605.573H187.39C188.015 605.573 188.517 605.465 188.896 605.249C189.275 605.033 189.549 604.742 189.72 604.374C189.894 604.003 189.981 603.584 189.981 603.118C189.981 602.653 189.894 602.236 189.72 601.868C189.549 601.501 189.273 601.213 188.89 601.005C188.508 600.793 188 600.687 187.368 600.687H184.89V611.073H183.481ZM196.024 611.278C195.471 611.278 194.969 611.173 194.518 610.965C194.067 610.753 193.709 610.448 193.444 610.05C193.179 609.649 193.047 609.164 193.047 608.596C193.047 608.096 193.145 607.69 193.342 607.38C193.539 607.065 193.802 606.819 194.132 606.641C194.461 606.463 194.825 606.331 195.223 606.243C195.624 606.153 196.028 606.081 196.433 606.028C196.963 605.959 197.393 605.908 197.723 605.874C198.056 605.836 198.298 605.774 198.45 605.687C198.605 605.6 198.683 605.448 198.683 605.232V605.187C198.683 604.626 198.53 604.19 198.223 603.88C197.92 603.569 197.459 603.414 196.842 603.414C196.202 603.414 195.7 603.554 195.336 603.834C194.973 604.115 194.717 604.414 194.569 604.732L193.297 604.278C193.524 603.747 193.827 603.334 194.206 603.039C194.588 602.74 195.005 602.531 195.456 602.414C195.91 602.293 196.357 602.232 196.797 602.232C197.077 602.232 197.399 602.266 197.762 602.334C198.13 602.399 198.484 602.533 198.825 602.738C199.17 602.942 199.456 603.251 199.683 603.664C199.91 604.077 200.024 604.63 200.024 605.323V611.073H198.683V609.891H198.615C198.524 610.081 198.372 610.283 198.16 610.499C197.948 610.715 197.666 610.899 197.314 611.05C196.961 611.202 196.531 611.278 196.024 611.278ZM196.228 610.073C196.759 610.073 197.206 609.969 197.569 609.76C197.937 609.552 198.213 609.283 198.399 608.954C198.588 608.624 198.683 608.278 198.683 607.914V606.687C198.626 606.755 198.501 606.817 198.308 606.874C198.119 606.927 197.899 606.975 197.649 607.016C197.403 607.054 197.162 607.088 196.927 607.118C196.696 607.145 196.509 607.168 196.365 607.187C196.016 607.232 195.691 607.306 195.387 607.408C195.088 607.507 194.846 607.656 194.66 607.857C194.478 608.054 194.387 608.323 194.387 608.664C194.387 609.13 194.56 609.482 194.905 609.721C195.253 609.956 195.694 610.073 196.228 610.073ZM202.471 611.073V602.346H203.767V603.664H203.858C204.017 603.232 204.305 602.882 204.721 602.613C205.138 602.344 205.608 602.209 206.13 602.209C206.229 602.209 206.352 602.211 206.5 602.215C206.647 602.219 206.759 602.225 206.835 602.232V603.596C206.789 603.584 206.685 603.567 206.522 603.545C206.363 603.518 206.195 603.505 206.017 603.505C205.593 603.505 205.214 603.594 204.88 603.772C204.551 603.946 204.289 604.189 204.096 604.499C203.907 604.806 203.812 605.156 203.812 605.55V611.073H202.471ZM211.704 611.255C210.886 611.255 210.182 611.062 209.591 610.675C209 610.289 208.545 609.757 208.227 609.079C207.909 608.401 207.75 607.626 207.75 606.755C207.75 605.868 207.913 605.086 208.238 604.408C208.568 603.726 209.026 603.194 209.613 602.812C210.204 602.425 210.894 602.232 211.682 602.232C212.295 602.232 212.848 602.346 213.341 602.573C213.833 602.8 214.236 603.118 214.551 603.528C214.865 603.937 215.06 604.414 215.136 604.959H213.795C213.693 604.562 213.466 604.209 213.113 603.903C212.765 603.592 212.295 603.437 211.704 603.437C211.182 603.437 210.723 603.573 210.329 603.846C209.939 604.115 209.634 604.495 209.414 604.988C209.199 605.476 209.091 606.05 209.091 606.709C209.091 607.384 209.197 607.971 209.409 608.471C209.625 608.971 209.928 609.359 210.318 609.635C210.712 609.912 211.174 610.05 211.704 610.05C212.053 610.05 212.369 609.99 212.653 609.868C212.937 609.747 213.178 609.573 213.375 609.346C213.572 609.118 213.712 608.846 213.795 608.528H215.136C215.06 609.043 214.873 609.507 214.574 609.92C214.278 610.329 213.886 610.654 213.397 610.897C212.913 611.135 212.348 611.255 211.704 611.255Z" fill="black"/>
<path d="M300.279 737.316H298.802L303.075 725.68H304.529L308.802 737.316H307.325L303.847 727.521H303.757L300.279 737.316ZM300.825 732.771H306.779V734.021H300.825V732.771ZM313.978 737.498C313.16 737.498 312.455 737.305 311.865 736.919C311.274 736.532 310.819 736 310.501 735.322C310.183 734.644 310.024 733.869 310.024 732.998C310.024 732.112 310.186 731.33 310.512 730.652C310.842 729.97 311.3 729.438 311.887 729.055C312.478 728.669 313.168 728.475 313.955 728.475C314.569 728.475 315.122 728.589 315.615 728.816C316.107 729.044 316.51 729.362 316.825 729.771C317.139 730.18 317.334 730.657 317.41 731.203H316.069C315.967 730.805 315.74 730.453 315.387 730.146C315.039 729.835 314.569 729.68 313.978 729.68C313.455 729.68 312.997 729.816 312.603 730.089C312.213 730.358 311.908 730.739 311.688 731.231C311.472 731.72 311.365 732.294 311.365 732.953C311.365 733.627 311.471 734.214 311.683 734.714C311.899 735.214 312.202 735.602 312.592 735.879C312.986 736.155 313.448 736.294 313.978 736.294C314.327 736.294 314.643 736.233 314.927 736.112C315.211 735.991 315.452 735.816 315.649 735.589C315.846 735.362 315.986 735.089 316.069 734.771H317.41C317.334 735.286 317.147 735.75 316.847 736.163C316.552 736.572 316.16 736.898 315.671 737.14C315.186 737.379 314.622 737.498 313.978 737.498ZM321.938 737.521C321.385 737.521 320.883 737.417 320.433 737.208C319.982 736.996 319.624 736.691 319.359 736.294C319.094 735.892 318.961 735.407 318.961 734.839C318.961 734.339 319.06 733.934 319.257 733.623C319.454 733.309 319.717 733.063 320.046 732.885C320.376 732.707 320.74 732.574 321.137 732.487C321.539 732.396 321.942 732.324 322.347 732.271C322.878 732.203 323.308 732.152 323.637 732.118C323.971 732.08 324.213 732.017 324.365 731.93C324.52 731.843 324.597 731.691 324.597 731.475V731.43C324.597 730.869 324.444 730.434 324.137 730.123C323.834 729.813 323.374 729.657 322.757 729.657C322.116 729.657 321.615 729.797 321.251 730.078C320.887 730.358 320.632 730.657 320.484 730.975L319.211 730.521C319.438 729.991 319.741 729.578 320.12 729.282C320.503 728.983 320.919 728.775 321.37 728.657C321.825 728.536 322.272 728.475 322.711 728.475C322.991 728.475 323.313 728.51 323.677 728.578C324.044 728.642 324.399 728.777 324.74 728.981C325.084 729.186 325.37 729.494 325.597 729.907C325.825 730.32 325.938 730.873 325.938 731.566V737.316H324.597V736.135H324.529C324.438 736.324 324.287 736.527 324.075 736.743C323.863 736.958 323.58 737.142 323.228 737.294C322.876 737.445 322.446 737.521 321.938 737.521ZM322.143 736.316C322.673 736.316 323.12 736.212 323.484 736.004C323.851 735.796 324.128 735.527 324.313 735.197C324.503 734.868 324.597 734.521 324.597 734.157V732.93C324.541 732.998 324.416 733.061 324.222 733.118C324.033 733.171 323.813 733.218 323.563 733.26C323.317 733.297 323.077 733.332 322.842 733.362C322.611 733.388 322.423 733.411 322.279 733.43C321.931 733.475 321.605 733.549 321.302 733.652C321.003 733.75 320.76 733.9 320.575 734.1C320.393 734.297 320.302 734.566 320.302 734.907C320.302 735.373 320.474 735.725 320.819 735.964C321.168 736.199 321.609 736.316 322.143 736.316ZM331.681 737.498C330.954 737.498 330.312 737.315 329.755 736.947C329.198 736.576 328.763 736.053 328.448 735.379C328.134 734.701 327.977 733.9 327.977 732.975C327.977 732.059 328.134 731.263 328.448 730.589C328.763 729.915 329.2 729.394 329.761 729.027C330.321 728.659 330.969 728.475 331.704 728.475C332.272 728.475 332.721 728.57 333.051 728.76C333.384 728.945 333.638 729.157 333.812 729.396C333.99 729.631 334.128 729.824 334.227 729.975H334.34V725.68H335.681V737.316H334.386V735.975H334.227C334.128 736.135 333.988 736.335 333.806 736.578C333.624 736.816 333.365 737.03 333.028 737.22C332.691 737.405 332.242 737.498 331.681 737.498ZM331.863 736.294C332.401 736.294 332.856 736.154 333.227 735.873C333.598 735.589 333.88 735.197 334.073 734.697C334.267 734.193 334.363 733.612 334.363 732.953C334.363 732.301 334.268 731.731 334.079 731.243C333.89 730.75 333.609 730.368 333.238 730.095C332.867 729.818 332.409 729.68 331.863 729.68C331.295 729.68 330.821 729.826 330.443 730.118C330.068 730.405 329.785 730.797 329.596 731.294C329.41 731.786 329.318 732.339 329.318 732.953C329.318 733.574 329.412 734.138 329.602 734.646C329.795 735.15 330.079 735.551 330.454 735.85C330.833 736.146 331.303 736.294 331.863 736.294ZM338.323 737.316V728.589H339.664V737.316H338.323ZM339.005 727.135C338.744 727.135 338.518 727.046 338.329 726.868C338.143 726.69 338.051 726.475 338.051 726.225C338.051 725.975 338.143 725.761 338.329 725.583C338.518 725.405 338.744 725.316 339.005 725.316C339.267 725.316 339.49 725.405 339.676 725.583C339.865 725.761 339.96 725.975 339.96 726.225C339.96 726.475 339.865 726.69 339.676 726.868C339.49 727.046 339.267 727.135 339.005 727.135ZM345.779 737.498C344.938 737.498 344.213 737.313 343.603 736.941C342.997 736.566 342.529 736.044 342.2 735.373C341.874 734.699 341.711 733.915 341.711 733.021C341.711 732.127 341.874 731.339 342.2 730.657C342.529 729.972 342.988 729.438 343.575 729.055C344.166 728.669 344.855 728.475 345.643 728.475C346.097 728.475 346.546 728.551 346.99 728.703C347.433 728.854 347.836 729.1 348.2 729.441C348.563 729.779 348.853 730.225 349.069 730.782C349.285 731.339 349.393 732.025 349.393 732.839V733.407H342.666V732.248H348.029C348.029 731.756 347.931 731.316 347.734 730.93C347.541 730.544 347.264 730.239 346.904 730.015C346.548 729.792 346.128 729.68 345.643 729.68C345.109 729.68 344.647 729.813 344.257 730.078C343.87 730.339 343.573 730.68 343.365 731.1C343.156 731.521 343.052 731.972 343.052 732.453V733.225C343.052 733.885 343.166 734.443 343.393 734.902C343.624 735.356 343.944 735.703 344.353 735.941C344.762 736.176 345.238 736.294 345.779 736.294C346.132 736.294 346.45 736.244 346.734 736.146C347.022 736.044 347.27 735.892 347.478 735.691C347.686 735.487 347.847 735.233 347.961 734.93L349.257 735.294C349.12 735.733 348.891 736.119 348.569 736.453C348.247 736.782 347.849 737.04 347.376 737.225C346.902 737.407 346.37 737.498 345.779 737.498Z" fill="black"/>
<path d="M401.183 857.742C401.183 858.969 400.962 860.03 400.518 860.923C400.075 861.817 399.467 862.507 398.695 862.992C397.922 863.476 397.039 863.719 396.047 863.719C395.054 863.719 394.172 863.476 393.399 862.992C392.626 862.507 392.018 861.817 391.575 860.923C391.132 860.03 390.91 858.969 390.91 857.742C390.91 856.514 391.132 855.454 391.575 854.56C392.018 853.666 392.626 852.976 393.399 852.492C394.172 852.007 395.054 851.764 396.047 851.764C397.039 851.764 397.922 852.007 398.695 852.492C399.467 852.976 400.075 853.666 400.518 854.56C400.962 855.454 401.183 856.514 401.183 857.742ZM399.82 857.742C399.82 856.734 399.651 855.884 399.314 855.19C398.981 854.497 398.528 853.973 397.956 853.617C397.388 853.261 396.751 853.083 396.047 853.083C395.342 853.083 394.704 853.261 394.132 853.617C393.564 853.973 393.111 854.497 392.774 855.19C392.441 855.884 392.274 856.734 392.274 857.742C392.274 858.749 392.441 859.6 392.774 860.293C393.111 860.986 393.564 861.511 394.132 861.867C394.704 862.223 395.342 862.401 396.047 862.401C396.751 862.401 397.388 862.223 397.956 861.867C398.528 861.511 398.981 860.986 399.314 860.293C399.651 859.6 399.82 858.749 399.82 857.742ZM408.871 859.992V854.833H410.212V863.56H408.871V862.083H408.78C408.575 862.526 408.257 862.903 407.825 863.213C407.393 863.52 406.848 863.673 406.189 863.673C405.643 863.673 405.159 863.554 404.734 863.315C404.31 863.073 403.977 862.709 403.734 862.225C403.492 861.736 403.371 861.12 403.371 860.378V854.833H404.712V860.287C404.712 860.923 404.89 861.431 405.246 861.81C405.606 862.189 406.064 862.378 406.621 862.378C406.954 862.378 407.293 862.293 407.638 862.122C407.986 861.952 408.278 861.69 408.513 861.338C408.751 860.986 408.871 860.537 408.871 859.992ZM416.463 854.833V855.969H411.94V854.833H416.463ZM413.258 852.742H414.599V861.06C414.599 861.439 414.654 861.723 414.764 861.912C414.878 862.098 415.022 862.223 415.196 862.287C415.374 862.348 415.561 862.378 415.758 862.378C415.906 862.378 416.027 862.37 416.122 862.355C416.217 862.336 416.293 862.321 416.349 862.31L416.622 863.514C416.531 863.548 416.404 863.583 416.241 863.617C416.079 863.655 415.872 863.673 415.622 863.673C415.243 863.673 414.872 863.592 414.508 863.429C414.149 863.266 413.849 863.018 413.611 862.685C413.376 862.351 413.258 861.931 413.258 861.423V852.742ZM418.48 863.56V854.833H419.776V856.151H419.866C420.026 855.719 420.313 855.369 420.73 855.1C421.147 854.831 421.616 854.696 422.139 854.696C422.238 854.696 422.361 854.698 422.508 854.702C422.656 854.706 422.768 854.711 422.844 854.719V856.083C422.798 856.071 422.694 856.054 422.531 856.031C422.372 856.005 422.204 855.992 422.026 855.992C421.601 855.992 421.222 856.081 420.889 856.259C420.56 856.433 420.298 856.675 420.105 856.986C419.916 857.293 419.821 857.643 419.821 858.037V863.56H418.48ZM427.827 863.742C426.986 863.742 426.26 863.556 425.651 863.185C425.044 862.81 424.577 862.287 424.247 861.617C423.921 860.942 423.758 860.158 423.758 859.264C423.758 858.37 423.921 857.583 424.247 856.901C424.577 856.215 425.035 855.681 425.622 855.298C426.213 854.912 426.902 854.719 427.69 854.719C428.145 854.719 428.594 854.795 429.037 854.946C429.48 855.098 429.883 855.344 430.247 855.685C430.611 856.022 430.901 856.469 431.116 857.026C431.332 857.583 431.44 858.268 431.44 859.083V859.651H424.713V858.492H430.077C430.077 857.999 429.978 857.56 429.781 857.173C429.588 856.787 429.311 856.482 428.952 856.259C428.596 856.035 428.175 855.923 427.69 855.923C427.156 855.923 426.694 856.056 426.304 856.321C425.918 856.583 425.62 856.923 425.412 857.344C425.204 857.764 425.099 858.215 425.099 858.696V859.469C425.099 860.128 425.213 860.687 425.44 861.145C425.671 861.6 425.991 861.946 426.401 862.185C426.81 862.42 427.285 862.537 427.827 862.537C428.179 862.537 428.497 862.488 428.781 862.389C429.069 862.287 429.317 862.136 429.526 861.935C429.734 861.73 429.895 861.476 430.008 861.173L431.304 861.537C431.168 861.976 430.938 862.363 430.616 862.696C430.294 863.026 429.897 863.283 429.423 863.469C428.95 863.651 428.418 863.742 427.827 863.742ZM433.48 863.56V854.833H434.776V856.196H434.889C435.071 855.73 435.365 855.369 435.77 855.111C436.175 854.85 436.662 854.719 437.23 854.719C437.806 854.719 438.285 854.85 438.668 855.111C439.054 855.369 439.355 855.73 439.571 856.196H439.662C439.885 855.745 440.221 855.387 440.668 855.122C441.115 854.853 441.651 854.719 442.276 854.719C443.056 854.719 443.694 854.963 444.19 855.452C444.686 855.937 444.935 856.692 444.935 857.719V863.56H443.594V857.719C443.594 857.075 443.418 856.615 443.065 856.338C442.713 856.062 442.298 855.923 441.821 855.923C441.207 855.923 440.732 856.109 440.395 856.48C440.058 856.848 439.889 857.314 439.889 857.878V863.56H438.526V857.583C438.526 857.086 438.365 856.687 438.043 856.384C437.721 856.077 437.306 855.923 436.798 855.923C436.45 855.923 436.124 856.016 435.821 856.202C435.522 856.387 435.279 856.645 435.094 856.975C434.912 857.3 434.821 857.677 434.821 858.105V863.56H433.48ZM450.932 863.742C450.144 863.742 449.453 863.554 448.858 863.179C448.267 862.804 447.805 862.28 447.472 861.605C447.142 860.931 446.977 860.143 446.977 859.242C446.977 858.333 447.142 857.539 447.472 856.861C447.805 856.183 448.267 855.656 448.858 855.281C449.453 854.906 450.144 854.719 450.932 854.719C451.72 854.719 452.409 854.906 453 855.281C453.595 855.656 454.057 856.183 454.386 856.861C454.72 857.539 454.886 858.333 454.886 859.242C454.886 860.143 454.72 860.931 454.386 861.605C454.057 862.28 453.595 862.804 453 863.179C452.409 863.554 451.72 863.742 450.932 863.742ZM450.932 862.537C451.53 862.537 452.023 862.384 452.409 862.077C452.795 861.77 453.081 861.367 453.267 860.867C453.453 860.367 453.545 859.825 453.545 859.242C453.545 858.658 453.453 858.115 453.267 857.611C453.081 857.107 452.795 856.7 452.409 856.389C452.023 856.079 451.53 855.923 450.932 855.923C450.333 855.923 449.841 856.079 449.454 856.389C449.068 856.7 448.782 857.107 448.597 857.611C448.411 858.115 448.318 858.658 448.318 859.242C448.318 859.825 448.411 860.367 448.597 860.867C448.782 861.367 449.068 861.77 449.454 862.077C449.841 862.384 450.333 862.537 450.932 862.537ZM458.274 858.31V863.56H456.933V854.833H458.229V856.196H458.342C458.547 855.753 458.857 855.397 459.274 855.128C459.691 854.855 460.229 854.719 460.888 854.719C461.479 854.719 461.996 854.84 462.439 855.083C462.882 855.321 463.227 855.685 463.473 856.173C463.719 856.658 463.842 857.272 463.842 858.014V863.56H462.501V858.105C462.501 857.42 462.323 856.886 461.967 856.503C461.611 856.117 461.123 855.923 460.501 855.923C460.073 855.923 459.691 856.016 459.354 856.202C459.02 856.387 458.757 856.658 458.564 857.014C458.371 857.37 458.274 857.802 458.274 858.31ZM470.088 854.833V855.969H465.565V854.833H470.088ZM466.883 852.742H468.224V861.06C468.224 861.439 468.279 861.723 468.389 861.912C468.503 862.098 468.647 862.223 468.821 862.287C468.999 862.348 469.186 862.378 469.383 862.378C469.531 862.378 469.652 862.37 469.747 862.355C469.842 862.336 469.918 862.321 469.974 862.31L470.247 863.514C470.156 863.548 470.029 863.583 469.866 863.617C469.704 863.655 469.497 863.673 469.247 863.673C468.868 863.673 468.497 863.592 468.133 863.429C467.774 863.266 467.474 863.018 467.236 862.685C467.001 862.351 466.883 861.931 466.883 861.423V852.742Z" fill="black"/>
<path d="M149.645 327.739H151.736V335.921C151.732 336.671 151.573 337.317 151.259 337.858C150.944 338.396 150.505 338.811 149.94 339.103C149.38 339.39 148.726 339.534 147.98 339.534C147.298 339.534 146.685 339.413 146.139 339.171C145.598 338.924 145.168 338.561 144.849 338.08C144.531 337.599 144.372 337 144.372 336.284H146.469C146.473 336.599 146.541 336.87 146.673 337.097C146.81 337.324 146.997 337.498 147.236 337.62C147.474 337.741 147.749 337.801 148.06 337.801C148.397 337.801 148.683 337.731 148.918 337.591C149.152 337.447 149.33 337.235 149.452 336.955C149.577 336.674 149.641 336.33 149.645 335.921V327.739ZM157.795 339.546C156.92 339.546 156.165 339.364 155.528 339C154.896 338.633 154.409 338.114 154.068 337.443C153.727 336.769 153.557 335.976 153.557 335.063C153.557 334.165 153.727 333.377 154.068 332.699C154.413 332.017 154.894 331.487 155.511 331.108C156.129 330.726 156.854 330.534 157.687 330.534C158.225 330.534 158.733 330.621 159.21 330.796C159.691 330.966 160.116 331.231 160.483 331.591C160.854 331.951 161.146 332.409 161.358 332.966C161.57 333.519 161.676 334.178 161.676 334.943V335.574H154.523V334.188H159.705C159.701 333.794 159.616 333.443 159.449 333.137C159.282 332.826 159.049 332.582 158.75 332.404C158.455 332.226 158.11 332.137 157.716 332.137C157.295 332.137 156.926 332.239 156.608 332.443C156.29 332.644 156.042 332.909 155.864 333.239C155.689 333.565 155.6 333.923 155.597 334.313V335.523C155.597 336.031 155.689 336.466 155.875 336.83C156.061 337.19 156.32 337.466 156.653 337.659C156.987 337.849 157.377 337.943 157.824 337.943C158.123 337.943 158.394 337.902 158.636 337.818C158.879 337.731 159.089 337.604 159.267 337.438C159.445 337.271 159.58 337.065 159.67 336.818L161.591 337.034C161.47 337.542 161.239 337.985 160.898 338.364C160.561 338.739 160.129 339.031 159.602 339.239C159.076 339.443 158.473 339.546 157.795 339.546ZM165.928 339.551C165.375 339.551 164.876 339.453 164.433 339.256C163.994 339.055 163.645 338.76 163.388 338.37C163.134 337.979 163.007 337.498 163.007 336.926C163.007 336.434 163.098 336.027 163.28 335.705C163.462 335.383 163.71 335.125 164.024 334.932C164.339 334.739 164.693 334.593 165.087 334.495C165.484 334.392 165.895 334.318 166.32 334.273C166.831 334.22 167.246 334.173 167.564 334.131C167.882 334.085 168.113 334.017 168.257 333.926C168.405 333.832 168.479 333.686 168.479 333.489V333.455C168.479 333.027 168.352 332.695 168.098 332.46C167.844 332.226 167.479 332.108 167.001 332.108C166.498 332.108 166.098 332.218 165.803 332.438C165.511 332.657 165.314 332.917 165.212 333.216L163.291 332.943C163.443 332.413 163.693 331.97 164.041 331.614C164.39 331.254 164.816 330.985 165.32 330.807C165.823 330.625 166.38 330.534 166.99 330.534C167.41 330.534 167.829 330.584 168.246 330.682C168.662 330.781 169.043 330.943 169.388 331.171C169.732 331.394 170.009 331.699 170.217 332.085C170.429 332.472 170.535 332.955 170.535 333.534V339.375H168.558V338.176H168.49C168.365 338.419 168.189 338.646 167.962 338.858C167.738 339.067 167.456 339.235 167.115 339.364C166.778 339.489 166.382 339.551 165.928 339.551ZM166.462 338.04C166.875 338.04 167.232 337.959 167.535 337.796C167.839 337.629 168.071 337.409 168.234 337.137C168.401 336.864 168.484 336.567 168.484 336.245V335.216C168.42 335.269 168.31 335.318 168.155 335.364C168.003 335.409 167.833 335.449 167.643 335.483C167.454 335.517 167.267 335.548 167.081 335.574C166.895 335.601 166.734 335.623 166.598 335.642C166.291 335.684 166.017 335.752 165.774 335.847C165.532 335.942 165.34 336.074 165.2 336.245C165.06 336.411 164.99 336.627 164.99 336.892C164.99 337.271 165.128 337.557 165.405 337.75C165.681 337.943 166.034 338.04 166.462 338.04ZM174.66 334.262V339.375H172.604V330.648H174.57V332.131H174.672C174.873 331.642 175.193 331.254 175.632 330.966C176.075 330.678 176.623 330.534 177.274 330.534C177.876 330.534 178.401 330.663 178.848 330.921C179.299 331.178 179.647 331.551 179.893 332.04C180.143 332.529 180.267 333.121 180.263 333.818V339.375H178.206V334.137C178.206 333.553 178.054 333.097 177.751 332.767C177.452 332.438 177.037 332.273 176.507 332.273C176.147 332.273 175.827 332.353 175.547 332.512C175.27 332.667 175.053 332.892 174.893 333.188C174.738 333.483 174.66 333.841 174.66 334.262ZM187.643 333.682V335.375H182.405V333.682H187.643ZM188.668 329.506V327.739H197.952V329.506H194.355V339.375H192.264V329.506H188.668ZM200.974 339.551C200.421 339.551 199.923 339.453 199.48 339.256C199.041 339.055 198.692 338.76 198.435 338.37C198.181 337.979 198.054 337.498 198.054 336.926C198.054 336.434 198.145 336.027 198.327 335.705C198.508 335.383 198.757 335.125 199.071 334.932C199.385 334.739 199.74 334.593 200.133 334.495C200.531 334.392 200.942 334.318 201.366 334.273C201.878 334.22 202.293 334.173 202.611 334.131C202.929 334.085 203.16 334.017 203.304 333.926C203.452 333.832 203.526 333.686 203.526 333.489V333.455C203.526 333.027 203.399 332.695 203.145 332.46C202.891 332.226 202.526 332.108 202.048 332.108C201.544 332.108 201.145 332.218 200.849 332.438C200.558 332.657 200.361 332.917 200.258 333.216L198.338 332.943C198.49 332.413 198.74 331.97 199.088 331.614C199.437 331.254 199.863 330.985 200.366 330.807C200.87 330.625 201.427 330.534 202.037 330.534C202.457 330.534 202.876 330.584 203.293 330.682C203.709 330.781 204.09 330.943 204.435 331.171C204.779 331.394 205.056 331.699 205.264 332.085C205.476 332.472 205.582 332.955 205.582 333.534V339.375H203.605V338.176H203.537C203.412 338.419 203.236 338.646 203.009 338.858C202.785 339.067 202.503 339.235 202.162 339.364C201.825 339.489 201.429 339.551 200.974 339.551ZM201.509 338.04C201.921 338.04 202.279 337.959 202.582 337.796C202.885 337.629 203.118 337.409 203.281 337.137C203.448 336.864 203.531 336.567 203.531 336.245V335.216C203.467 335.269 203.357 335.318 203.202 335.364C203.05 335.409 202.88 335.449 202.69 335.483C202.501 335.517 202.313 335.548 202.128 335.574C201.942 335.601 201.781 335.623 201.645 335.642C201.338 335.684 201.063 335.752 200.821 335.847C200.579 335.942 200.387 336.074 200.247 336.245C200.107 336.411 200.037 336.627 200.037 336.892C200.037 337.271 200.175 337.557 200.452 337.75C200.728 337.943 201.08 338.04 201.509 338.04ZM209.707 327.739V339.375H207.651V327.739H209.707ZM215.629 339.546C214.777 339.546 214.038 339.358 213.413 338.983C212.788 338.608 212.303 338.084 211.959 337.409C211.618 336.735 211.447 335.947 211.447 335.046C211.447 334.144 211.618 333.354 211.959 332.676C212.303 331.998 212.788 331.472 213.413 331.097C214.038 330.722 214.777 330.534 215.629 330.534C216.482 330.534 217.22 330.722 217.845 331.097C218.47 331.472 218.953 331.998 219.294 332.676C219.639 333.354 219.811 334.144 219.811 335.046C219.811 335.947 219.639 336.735 219.294 337.409C218.953 338.084 218.47 338.608 217.845 338.983C217.22 339.358 216.482 339.546 215.629 339.546ZM215.641 337.898C216.103 337.898 216.489 337.771 216.8 337.517C217.11 337.26 217.341 336.915 217.493 336.483C217.648 336.051 217.726 335.57 217.726 335.04C217.726 334.506 217.648 334.023 217.493 333.591C217.341 333.156 217.11 332.809 216.8 332.551C216.489 332.294 216.103 332.165 215.641 332.165C215.167 332.165 214.773 332.294 214.459 332.551C214.148 332.809 213.915 333.156 213.76 333.591C213.608 334.023 213.533 334.506 213.533 335.04C213.533 335.57 213.608 336.051 213.76 336.483C213.915 336.915 214.148 337.26 214.459 337.517C214.773 337.771 215.167 337.898 215.641 337.898ZM223.614 334.262V339.375H221.557V330.648H223.523V332.131H223.625C223.826 331.642 224.146 331.254 224.585 330.966C225.028 330.678 225.576 330.534 226.227 330.534C226.83 330.534 227.354 330.663 227.801 330.921C228.252 331.178 228.6 331.551 228.847 332.04C229.097 332.529 229.22 333.121 229.216 333.818V339.375H227.159V334.137C227.159 333.553 227.008 333.097 226.705 332.767C226.405 332.438 225.991 332.273 225.46 332.273C225.1 332.273 224.78 332.353 224.5 332.512C224.223 332.667 224.006 332.892 223.847 333.188C223.691 333.483 223.614 333.841 223.614 334.262Z" fill="black"/>
<path d="M362.759 357.671V346.035H366.828C367.638 346.035 368.307 346.175 368.833 346.455C369.36 346.732 369.752 347.105 370.009 347.575C370.267 348.041 370.396 348.558 370.396 349.126C370.396 349.626 370.307 350.039 370.129 350.365C369.954 350.69 369.723 350.948 369.435 351.137C369.151 351.327 368.843 351.467 368.509 351.558V351.671C368.865 351.694 369.223 351.819 369.583 352.046C369.943 352.274 370.244 352.599 370.487 353.024C370.729 353.448 370.85 353.967 370.85 354.58C370.85 355.164 370.718 355.688 370.453 356.154C370.187 356.62 369.769 356.99 369.197 357.262C368.625 357.535 367.881 357.671 366.964 357.671H362.759ZM364.168 356.421H366.964C367.884 356.421 368.538 356.243 368.924 355.887C369.314 355.527 369.509 355.092 369.509 354.58C369.509 354.187 369.409 353.823 369.208 353.49C369.007 353.152 368.721 352.884 368.35 352.683C367.979 352.478 367.54 352.376 367.032 352.376H364.168V356.421ZM364.168 351.149H366.782C367.206 351.149 367.589 351.065 367.93 350.899C368.274 350.732 368.547 350.497 368.748 350.194C368.953 349.891 369.055 349.535 369.055 349.126C369.055 348.615 368.877 348.181 368.521 347.825C368.165 347.465 367.6 347.285 366.828 347.285H364.168V351.149ZM376.643 357.853C375.802 357.853 375.077 357.668 374.467 357.296C373.861 356.921 373.393 356.399 373.063 355.728C372.738 355.054 372.575 354.27 372.575 353.376C372.575 352.482 372.738 351.694 373.063 351.012C373.393 350.327 373.851 349.793 374.438 349.41C375.029 349.024 375.719 348.83 376.506 348.83C376.961 348.83 377.41 348.906 377.853 349.058C378.296 349.209 378.7 349.455 379.063 349.796C379.427 350.134 379.717 350.58 379.933 351.137C380.149 351.694 380.256 352.38 380.256 353.194V353.762H373.529V352.603H378.893C378.893 352.111 378.794 351.671 378.597 351.285C378.404 350.899 378.128 350.594 377.768 350.37C377.412 350.147 376.991 350.035 376.506 350.035C375.972 350.035 375.51 350.168 375.12 350.433C374.734 350.694 374.436 351.035 374.228 351.455C374.02 351.876 373.916 352.327 373.916 352.808V353.58C373.916 354.24 374.029 354.798 374.256 355.257C374.488 355.711 374.808 356.058 375.217 356.296C375.626 356.531 376.101 356.649 376.643 356.649C376.995 356.649 377.313 356.599 377.597 356.501C377.885 356.399 378.133 356.247 378.342 356.046C378.55 355.842 378.711 355.588 378.825 355.285L380.12 355.649C379.984 356.088 379.755 356.474 379.433 356.808C379.111 357.137 378.713 357.395 378.239 357.58C377.766 357.762 377.234 357.853 376.643 357.853ZM384.864 357.876C384.311 357.876 383.81 357.772 383.359 357.563C382.908 357.351 382.55 357.046 382.285 356.649C382.02 356.247 381.887 355.762 381.887 355.194C381.887 354.694 381.986 354.289 382.183 353.978C382.38 353.664 382.643 353.418 382.972 353.24C383.302 353.062 383.666 352.929 384.063 352.842C384.465 352.751 384.868 352.679 385.274 352.626C385.804 352.558 386.234 352.507 386.563 352.473C386.897 352.435 387.139 352.372 387.291 352.285C387.446 352.198 387.524 352.046 387.524 351.83V351.785C387.524 351.224 387.37 350.789 387.063 350.478C386.76 350.168 386.3 350.012 385.683 350.012C385.042 350.012 384.541 350.152 384.177 350.433C383.813 350.713 383.558 351.012 383.41 351.33L382.137 350.876C382.364 350.346 382.667 349.933 383.046 349.637C383.429 349.338 383.845 349.13 384.296 349.012C384.751 348.891 385.198 348.83 385.637 348.83C385.917 348.83 386.239 348.865 386.603 348.933C386.97 348.997 387.325 349.132 387.666 349.336C388.01 349.541 388.296 349.849 388.524 350.262C388.751 350.675 388.864 351.228 388.864 351.921V357.671H387.524V356.49H387.455C387.364 356.679 387.213 356.882 387.001 357.098C386.789 357.313 386.506 357.497 386.154 357.649C385.802 357.8 385.372 357.876 384.864 357.876ZM385.069 356.671C385.599 356.671 386.046 356.567 386.41 356.359C386.777 356.151 387.054 355.882 387.239 355.552C387.429 355.223 387.524 354.876 387.524 354.512V353.285C387.467 353.353 387.342 353.416 387.149 353.473C386.959 353.526 386.739 353.573 386.489 353.615C386.243 353.652 386.003 353.687 385.768 353.717C385.537 353.743 385.349 353.766 385.205 353.785C384.857 353.83 384.531 353.904 384.228 354.007C383.929 354.105 383.686 354.255 383.501 354.455C383.319 354.652 383.228 354.921 383.228 355.262C383.228 355.728 383.4 356.08 383.745 356.319C384.094 356.554 384.535 356.671 385.069 356.671ZM396.812 354.103V348.944H398.153V357.671H396.812V356.194H396.721C396.516 356.637 396.198 357.014 395.766 357.325C395.335 357.632 394.789 357.785 394.13 357.785C393.585 357.785 393.1 357.666 392.676 357.427C392.251 357.185 391.918 356.821 391.676 356.336C391.433 355.848 391.312 355.232 391.312 354.49V348.944H392.653V354.399C392.653 355.035 392.831 355.543 393.187 355.921C393.547 356.3 394.005 356.49 394.562 356.49C394.895 356.49 395.234 356.404 395.579 356.234C395.927 356.063 396.219 355.802 396.454 355.45C396.693 355.098 396.812 354.649 396.812 354.103ZM400.791 357.671V346.035H402.131V350.33H402.245C402.344 350.179 402.48 349.986 402.654 349.751C402.832 349.512 403.086 349.3 403.416 349.115C403.749 348.925 404.2 348.83 404.768 348.83C405.503 348.83 406.15 349.014 406.711 349.382C407.272 349.749 407.709 350.27 408.024 350.944C408.338 351.618 408.495 352.414 408.495 353.33C408.495 354.255 408.338 355.056 408.024 355.734C407.709 356.408 407.274 356.931 406.717 357.302C406.16 357.669 405.518 357.853 404.791 357.853C404.23 357.853 403.781 357.76 403.444 357.575C403.107 357.385 402.847 357.171 402.666 356.933C402.484 356.69 402.344 356.49 402.245 356.33H402.086V357.671H400.791ZM402.109 353.308C402.109 353.967 402.205 354.548 402.399 355.052C402.592 355.552 402.874 355.944 403.245 356.228C403.616 356.509 404.071 356.649 404.609 356.649C405.169 356.649 405.637 356.501 406.012 356.205C406.391 355.906 406.675 355.505 406.864 355.001C407.058 354.493 407.154 353.929 407.154 353.308C407.154 352.694 407.06 352.141 406.87 351.649C406.685 351.152 406.402 350.76 406.024 350.473C405.649 350.181 405.177 350.035 404.609 350.035C404.063 350.035 403.605 350.173 403.234 350.45C402.863 350.723 402.582 351.105 402.393 351.598C402.203 352.086 402.109 352.656 402.109 353.308ZM410.546 357.671V348.944H411.887V357.671H410.546ZM411.228 347.49C410.967 347.49 410.741 347.401 410.552 347.223C410.366 347.044 410.274 346.83 410.274 346.58C410.274 346.33 410.366 346.116 410.552 345.938C410.741 345.76 410.967 345.671 411.228 345.671C411.489 345.671 411.713 345.76 411.899 345.938C412.088 346.116 412.183 346.33 412.183 346.58C412.183 346.83 412.088 347.044 411.899 347.223C411.713 347.401 411.489 347.49 411.228 347.49ZM418.002 357.853C417.161 357.853 416.436 357.668 415.826 357.296C415.22 356.921 414.752 356.399 414.423 355.728C414.097 355.054 413.934 354.27 413.934 353.376C413.934 352.482 414.097 351.694 414.423 351.012C414.752 350.327 415.211 349.793 415.798 349.41C416.389 349.024 417.078 348.83 417.866 348.83C418.32 348.83 418.769 348.906 419.212 349.058C419.656 349.209 420.059 349.455 420.423 349.796C420.786 350.134 421.076 350.58 421.292 351.137C421.508 351.694 421.616 352.38 421.616 353.194V353.762H414.889V352.603H420.252C420.252 352.111 420.154 351.671 419.957 351.285C419.764 350.899 419.487 350.594 419.127 350.37C418.771 350.147 418.351 350.035 417.866 350.035C417.332 350.035 416.87 350.168 416.479 350.433C416.093 350.694 415.796 351.035 415.587 351.455C415.379 351.876 415.275 352.327 415.275 352.808V353.58C415.275 354.24 415.389 354.798 415.616 355.257C415.847 355.711 416.167 356.058 416.576 356.296C416.985 356.531 417.461 356.649 418.002 356.649C418.354 356.649 418.673 356.599 418.957 356.501C419.245 356.399 419.493 356.247 419.701 356.046C419.909 355.842 420.07 355.588 420.184 355.285L421.479 355.649C421.343 356.088 421.114 356.474 420.792 356.808C420.47 357.137 420.072 357.395 419.599 357.58C419.125 357.762 418.593 357.853 418.002 357.853ZM424.997 352.421V357.671H423.656V348.944H424.951V350.308H425.065C425.269 349.865 425.58 349.509 425.997 349.24C426.413 348.967 426.951 348.83 427.61 348.83C428.201 348.83 428.718 348.952 429.161 349.194C429.604 349.433 429.949 349.796 430.195 350.285C430.442 350.77 430.565 351.384 430.565 352.126V357.671H429.224V352.217C429.224 351.531 429.046 350.997 428.69 350.615C428.334 350.228 427.845 350.035 427.224 350.035C426.796 350.035 426.413 350.128 426.076 350.313C425.743 350.499 425.479 350.77 425.286 351.126C425.093 351.482 424.997 351.914 424.997 352.421Z" fill="black"/>
<path d="M74.7519 346.035H76.161V354.353C76.161 355.096 76.0246 355.726 75.7519 356.245C75.4792 356.764 75.0947 357.158 74.5985 357.427C74.1023 357.696 73.5171 357.83 72.8428 357.83C72.2065 357.83 71.6402 357.715 71.144 357.484C70.6478 357.249 70.2576 356.916 69.9735 356.484C69.6894 356.052 69.5474 355.539 69.5474 354.944H70.9337C70.9337 355.274 71.0152 355.562 71.1781 355.808C71.3447 356.05 71.572 356.24 71.8599 356.376C72.1478 356.512 72.4754 356.58 72.8428 356.58C73.2481 356.58 73.5928 356.495 73.8769 356.325C74.161 356.154 74.3769 355.904 74.5246 355.575C74.6762 355.241 74.7519 354.834 74.7519 354.353V346.035ZM81.3712 357.876C80.8182 357.876 80.3163 357.772 79.8656 357.563C79.4148 357.351 79.0568 357.046 78.7917 356.649C78.5265 356.247 78.394 355.762 78.394 355.194C78.394 354.694 78.4924 354.289 78.6894 353.978C78.8864 353.664 79.1496 353.418 79.4792 353.24C79.8087 353.062 80.1724 352.929 80.5701 352.842C80.9716 352.751 81.375 352.679 81.7803 352.626C82.3106 352.558 82.7406 352.507 83.0701 352.473C83.4034 352.435 83.6459 352.372 83.7974 352.285C83.9527 352.198 84.0303 352.046 84.0303 351.83V351.785C84.0303 351.224 83.8769 350.789 83.5701 350.478C83.2671 350.168 82.8068 350.012 82.1894 350.012C81.5493 350.012 81.0474 350.152 80.6837 350.433C80.3201 350.713 80.0644 351.012 79.9167 351.33L78.644 350.876C78.8712 350.346 79.1743 349.933 79.5531 349.637C79.9356 349.338 80.3523 349.13 80.8031 349.012C81.2576 348.891 81.7046 348.83 82.144 348.83C82.4243 348.83 82.7462 348.865 83.1099 348.933C83.4773 348.997 83.8315 349.132 84.1724 349.336C84.5171 349.541 84.8031 349.849 85.0303 350.262C85.2576 350.675 85.3712 351.228 85.3712 351.921V357.671H84.0303V356.49H83.9621C83.8712 356.679 83.7197 356.882 83.5076 357.098C83.2955 357.313 83.0133 357.497 82.661 357.649C82.3087 357.8 81.8788 357.876 81.3712 357.876ZM81.5758 356.671C82.1061 356.671 82.5531 356.567 82.9167 356.359C83.2841 356.151 83.5606 355.882 83.7462 355.552C83.9356 355.223 84.0303 354.876 84.0303 354.512V353.285C83.9735 353.353 83.8485 353.416 83.6553 353.473C83.4659 353.526 83.2462 353.573 82.9962 353.615C82.75 353.652 82.5095 353.687 82.2746 353.717C82.0436 353.743 81.8561 353.766 81.7121 353.785C81.3637 353.83 81.0379 353.904 80.7349 354.007C80.4356 354.105 80.1932 354.255 80.0076 354.455C79.8258 354.652 79.7349 354.921 79.7349 355.262C79.7349 355.728 79.9072 356.08 80.2519 356.319C80.6004 356.554 81.0417 356.671 81.5758 356.671ZM87.8187 357.671V348.944H89.1141V350.262H89.205C89.3641 349.83 89.652 349.48 90.0687 349.211C90.4853 348.942 90.955 348.808 91.4778 348.808C91.5763 348.808 91.6994 348.81 91.8471 348.813C91.9948 348.817 92.1066 348.823 92.1823 348.83V350.194C92.1369 350.183 92.0327 350.166 91.8698 350.143C91.7107 350.116 91.5422 350.103 91.3641 350.103C90.9399 350.103 90.5611 350.192 90.2278 350.37C89.8982 350.544 89.6369 350.787 89.4437 351.098C89.2543 351.404 89.1596 351.755 89.1596 352.149V357.671H87.8187ZM93.7718 357.671V348.944H95.0673V350.262H95.1582C95.3173 349.83 95.6051 349.48 96.0218 349.211C96.4385 348.942 96.9082 348.808 97.4309 348.808C97.5294 348.808 97.6525 348.81 97.8002 348.813C97.9479 348.817 98.0597 348.823 98.1354 348.83V350.194C98.09 350.183 97.9858 350.166 97.8229 350.143C97.6639 350.116 97.4953 350.103 97.3173 350.103C96.893 350.103 96.5142 350.192 96.1809 350.37C95.8514 350.544 95.59 350.787 95.3968 351.098C95.2074 351.404 95.1127 351.755 95.1127 352.149V357.671H93.7718ZM100.854 360.944C100.627 360.944 100.424 360.925 100.246 360.887C100.068 360.853 99.9451 360.819 99.8769 360.785L100.218 359.603C100.544 359.687 100.831 359.717 101.081 359.694C101.331 359.671 101.553 359.56 101.746 359.359C101.943 359.162 102.123 358.842 102.286 358.399L102.536 357.717L99.3087 348.944H100.763L103.172 355.899H103.263L105.672 348.944H107.127L103.422 358.944C103.256 359.395 103.049 359.768 102.803 360.063C102.557 360.363 102.271 360.584 101.945 360.728C101.623 360.872 101.259 360.944 100.854 360.944Z" fill="black"/>
<path d="M534.714 357.671V346.035H538.646C539.555 346.035 540.301 346.19 540.885 346.501C541.468 346.808 541.9 347.23 542.18 347.768C542.46 348.306 542.6 348.918 542.6 349.603C542.6 350.289 542.46 350.897 542.18 351.427C541.9 351.957 541.47 352.374 540.89 352.677C540.311 352.976 539.57 353.126 538.669 353.126H535.487V351.853H538.623C539.244 351.853 539.744 351.762 540.123 351.58C540.506 351.399 540.782 351.141 540.953 350.808C541.127 350.471 541.214 350.069 541.214 349.603C541.214 349.137 541.127 348.73 540.953 348.382C540.778 348.033 540.5 347.764 540.117 347.575C539.735 347.382 539.229 347.285 538.6 347.285H536.123V357.671H534.714ZM540.191 352.444L543.055 357.671H541.419L538.6 352.444H540.191ZM548.218 357.853C547.43 357.853 546.739 357.666 546.144 357.291C545.554 356.916 545.091 356.391 544.758 355.717C544.429 355.043 544.264 354.255 544.264 353.353C544.264 352.444 544.429 351.651 544.758 350.973C545.091 350.294 545.554 349.768 546.144 349.393C546.739 349.018 547.43 348.83 548.218 348.83C549.006 348.83 549.696 349.018 550.287 349.393C550.881 349.768 551.343 350.294 551.673 350.973C552.006 351.651 552.173 352.444 552.173 353.353C552.173 354.255 552.006 355.043 551.673 355.717C551.343 356.391 550.881 356.916 550.287 357.291C549.696 357.666 549.006 357.853 548.218 357.853ZM548.218 356.649C548.817 356.649 549.309 356.495 549.696 356.188C550.082 355.882 550.368 355.478 550.554 354.978C550.739 354.478 550.832 353.937 550.832 353.353C550.832 352.77 550.739 352.226 550.554 351.723C550.368 351.219 550.082 350.812 549.696 350.501C549.309 350.19 548.817 350.035 548.218 350.035C547.62 350.035 547.127 350.19 546.741 350.501C546.355 350.812 546.069 351.219 545.883 351.723C545.697 352.226 545.605 352.77 545.605 353.353C545.605 353.937 545.697 354.478 545.883 354.978C546.069 355.478 546.355 355.882 546.741 356.188C547.127 356.495 547.62 356.649 548.218 356.649ZM560.402 350.899L559.197 351.24C559.121 351.039 559.01 350.844 558.862 350.654C558.718 350.461 558.521 350.302 558.271 350.177C558.021 350.052 557.701 349.99 557.311 349.99C556.777 349.99 556.331 350.113 555.975 350.359C555.623 350.601 555.447 350.91 555.447 351.285C555.447 351.618 555.568 351.882 555.811 352.075C556.053 352.268 556.432 352.429 556.947 352.558L558.242 352.876C559.023 353.065 559.604 353.355 559.987 353.745C560.369 354.132 560.561 354.63 560.561 355.24C560.561 355.74 560.417 356.187 560.129 356.58C559.845 356.974 559.447 357.285 558.936 357.512C558.424 357.74 557.83 357.853 557.152 357.853C556.261 357.853 555.525 357.66 554.941 357.274C554.358 356.887 553.989 356.323 553.833 355.58L555.106 355.262C555.227 355.732 555.456 356.084 555.794 356.319C556.135 356.554 556.58 356.671 557.129 356.671C557.754 356.671 558.25 356.539 558.617 356.274C558.989 356.005 559.174 355.683 559.174 355.308C559.174 355.005 559.068 354.751 558.856 354.546C558.644 354.338 558.318 354.183 557.879 354.08L556.424 353.74C555.625 353.55 555.038 353.257 554.663 352.859C554.292 352.457 554.106 351.955 554.106 351.353C554.106 350.861 554.244 350.425 554.521 350.046C554.801 349.668 555.182 349.37 555.663 349.154C556.148 348.938 556.697 348.83 557.311 348.83C558.174 348.83 558.852 349.02 559.345 349.399C559.841 349.777 560.193 350.277 560.402 350.899ZM566.238 357.853C565.397 357.853 564.672 357.668 564.062 357.296C563.456 356.921 562.988 356.399 562.659 355.728C562.333 355.054 562.17 354.27 562.17 353.376C562.17 352.482 562.333 351.694 562.659 351.012C562.988 350.327 563.447 349.793 564.034 349.41C564.625 349.024 565.314 348.83 566.102 348.83C566.556 348.83 567.005 348.906 567.448 349.058C567.892 349.209 568.295 349.455 568.659 349.796C569.022 350.134 569.312 350.58 569.528 351.137C569.744 351.694 569.852 352.38 569.852 353.194V353.762H563.125V352.603H568.488C568.488 352.111 568.39 351.671 568.193 351.285C568 350.899 567.723 350.594 567.363 350.37C567.007 350.147 566.587 350.035 566.102 350.035C565.568 350.035 565.106 350.168 564.715 350.433C564.329 350.694 564.032 351.035 563.823 351.455C563.615 351.876 563.511 352.327 563.511 352.808V353.58C563.511 354.24 563.625 354.798 563.852 355.257C564.083 355.711 564.403 356.058 564.812 356.296C565.221 356.531 565.697 356.649 566.238 356.649C566.59 356.649 566.909 356.599 567.193 356.501C567.481 356.399 567.729 356.247 567.937 356.046C568.145 355.842 568.306 355.588 568.42 355.285L569.715 355.649C569.579 356.088 569.35 356.474 569.028 356.808C568.706 357.137 568.308 357.395 567.835 357.58C567.361 357.762 566.829 357.853 566.238 357.853ZM571.892 357.671V348.944H573.187V350.308H573.301C573.483 349.842 573.776 349.48 574.181 349.223C574.587 348.961 575.073 348.83 575.642 348.83C576.217 348.83 576.697 348.961 577.079 349.223C577.465 349.48 577.767 349.842 577.983 350.308H578.073C578.297 349.857 578.632 349.499 579.079 349.234C579.526 348.965 580.062 348.83 580.687 348.83C581.467 348.83 582.106 349.075 582.602 349.563C583.098 350.048 583.346 350.804 583.346 351.83V357.671H582.005V351.83C582.005 351.187 581.829 350.726 581.477 350.45C581.125 350.173 580.71 350.035 580.233 350.035C579.619 350.035 579.144 350.221 578.806 350.592C578.469 350.959 578.301 351.425 578.301 351.99V357.671H576.937V351.694C576.937 351.198 576.776 350.798 576.454 350.495C576.132 350.188 575.717 350.035 575.21 350.035C574.861 350.035 574.536 350.128 574.233 350.313C573.933 350.499 573.691 350.757 573.505 351.086C573.323 351.412 573.233 351.789 573.233 352.217V357.671H571.892ZM589.343 357.853C588.555 357.853 587.864 357.666 587.269 357.291C586.679 356.916 586.216 356.391 585.883 355.717C585.554 355.043 585.389 354.255 585.389 353.353C585.389 352.444 585.554 351.651 585.883 350.973C586.216 350.294 586.679 349.768 587.269 349.393C587.864 349.018 588.555 348.83 589.343 348.83C590.131 348.83 590.821 349.018 591.412 349.393C592.006 349.768 592.468 350.294 592.798 350.973C593.131 351.651 593.298 352.444 593.298 353.353C593.298 354.255 593.131 355.043 592.798 355.717C592.468 356.391 592.006 356.916 591.412 357.291C590.821 357.666 590.131 357.853 589.343 357.853ZM589.343 356.649C589.942 356.649 590.434 356.495 590.821 356.188C591.207 355.882 591.493 355.478 591.679 354.978C591.864 354.478 591.957 353.937 591.957 353.353C591.957 352.77 591.864 352.226 591.679 351.723C591.493 351.219 591.207 350.812 590.821 350.501C590.434 350.19 589.942 350.035 589.343 350.035C588.745 350.035 588.252 350.19 587.866 350.501C587.48 350.812 587.194 351.219 587.008 351.723C586.822 352.226 586.73 352.77 586.73 353.353C586.73 353.937 586.822 354.478 587.008 354.978C587.194 355.478 587.48 355.882 587.866 356.188C588.252 356.495 588.745 356.649 589.343 356.649ZM596.686 352.421V357.671H595.345V348.944H596.64V350.308H596.754C596.958 349.865 597.269 349.509 597.686 349.24C598.102 348.967 598.64 348.83 599.299 348.83C599.89 348.83 600.407 348.952 600.85 349.194C601.294 349.433 601.638 349.796 601.885 350.285C602.131 350.77 602.254 351.384 602.254 352.126V357.671H600.913V352.217C600.913 351.531 600.735 350.997 600.379 350.615C600.023 350.228 599.534 350.035 598.913 350.035C598.485 350.035 598.102 350.128 597.765 350.313C597.432 350.499 597.169 350.77 596.975 351.126C596.782 351.482 596.686 351.914 596.686 352.421ZM608.5 348.944V350.08H603.977V348.944H608.5ZM605.295 346.853H606.636V355.171C606.636 355.55 606.691 355.834 606.801 356.024C606.914 356.209 607.058 356.334 607.233 356.399C607.411 356.459 607.598 356.49 607.795 356.49C607.943 356.49 608.064 356.482 608.159 356.467C608.253 356.448 608.329 356.433 608.386 356.421L608.659 357.626C608.568 357.66 608.441 357.694 608.278 357.728C608.115 357.766 607.909 357.785 607.659 357.785C607.28 357.785 606.909 357.704 606.545 357.541C606.185 357.378 605.886 357.13 605.647 356.796C605.412 356.463 605.295 356.043 605.295 355.535V346.853Z" fill="black"/>
<path d="M711.208 357.671V346.035H712.617V356.421H718.026V357.671H711.208ZM722.594 357.876C722.041 357.876 721.539 357.772 721.088 357.563C720.637 357.351 720.279 357.046 720.014 356.649C719.749 356.247 719.617 355.762 719.617 355.194C719.617 354.694 719.715 354.289 719.912 353.978C720.109 353.664 720.372 353.418 720.702 353.24C721.031 353.062 721.395 352.929 721.793 352.842C722.194 352.751 722.598 352.679 723.003 352.626C723.533 352.558 723.963 352.507 724.293 352.473C724.626 352.435 724.869 352.372 725.02 352.285C725.175 352.198 725.253 352.046 725.253 351.83V351.785C725.253 351.224 725.1 350.789 724.793 350.478C724.49 350.168 724.029 350.012 723.412 350.012C722.772 350.012 722.27 350.152 721.906 350.433C721.543 350.713 721.287 351.012 721.139 351.33L719.867 350.876C720.094 350.346 720.397 349.933 720.776 349.637C721.158 349.338 721.575 349.13 722.026 349.012C722.48 348.891 722.927 348.83 723.367 348.83C723.647 348.83 723.969 348.865 724.333 348.933C724.7 348.997 725.054 349.132 725.395 349.336C725.74 349.541 726.026 349.849 726.253 350.262C726.48 350.675 726.594 351.228 726.594 351.921V357.671H725.253V356.49H725.185C725.094 356.679 724.942 356.882 724.73 357.098C724.518 357.313 724.236 357.497 723.884 357.649C723.531 357.8 723.101 357.876 722.594 357.876ZM722.798 356.671C723.329 356.671 723.776 356.567 724.139 356.359C724.507 356.151 724.783 355.882 724.969 355.552C725.158 355.223 725.253 354.876 725.253 354.512V353.285C725.196 353.353 725.071 353.416 724.878 353.473C724.689 353.526 724.469 353.573 724.219 353.615C723.973 353.652 723.732 353.687 723.497 353.717C723.266 353.743 723.079 353.766 722.935 353.785C722.586 353.83 722.261 353.904 721.958 354.007C721.658 354.105 721.416 354.255 721.23 354.455C721.048 354.652 720.958 354.921 720.958 355.262C720.958 355.728 721.13 356.08 721.475 356.319C721.823 356.554 722.264 356.671 722.798 356.671ZM734.541 354.103V348.944H735.882V357.671H734.541V356.194H734.45C734.246 356.637 733.928 357.014 733.496 357.325C733.064 357.632 732.519 357.785 731.86 357.785C731.314 357.785 730.829 357.666 730.405 357.427C729.981 357.185 729.647 356.821 729.405 356.336C729.163 355.848 729.041 355.232 729.041 354.49V348.944H730.382V354.399C730.382 355.035 730.56 355.543 730.916 355.921C731.276 356.3 731.735 356.49 732.291 356.49C732.625 356.49 732.964 356.404 733.308 356.234C733.657 356.063 733.949 355.802 734.183 355.45C734.422 355.098 734.541 354.649 734.541 354.103ZM738.338 357.671V348.944H739.634V350.262H739.725C739.884 349.83 740.172 349.48 740.588 349.211C741.005 348.942 741.475 348.808 741.997 348.808C742.096 348.808 742.219 348.81 742.367 348.813C742.514 348.817 742.626 348.823 742.702 348.83V350.194C742.656 350.183 742.552 350.166 742.389 350.143C742.23 350.116 742.062 350.103 741.884 350.103C741.459 350.103 741.081 350.192 740.747 350.37C740.418 350.544 740.156 350.787 739.963 351.098C739.774 351.404 739.679 351.755 739.679 352.149V357.671H738.338ZM744.291 357.671V348.944H745.632V357.671H744.291ZM744.973 347.49C744.712 347.49 744.486 347.401 744.297 347.223C744.111 347.044 744.019 346.83 744.019 346.58C744.019 346.33 744.111 346.116 744.297 345.938C744.486 345.76 744.712 345.671 744.973 345.671C745.235 345.671 745.458 345.76 745.644 345.938C745.833 346.116 745.928 346.33 745.928 346.58C745.928 346.83 745.833 347.044 745.644 347.223C745.458 347.401 745.235 347.49 744.973 347.49ZM751.747 357.853C750.906 357.853 750.181 357.668 749.571 357.296C748.965 356.921 748.497 356.399 748.168 355.728C747.842 355.054 747.679 354.27 747.679 353.376C747.679 352.482 747.842 351.694 748.168 351.012C748.497 350.327 748.956 349.793 749.543 349.41C750.134 349.024 750.823 348.83 751.611 348.83C752.065 348.83 752.514 348.906 752.958 349.058C753.401 349.209 753.804 349.455 754.168 349.796C754.531 350.134 754.821 350.58 755.037 351.137C755.253 351.694 755.361 352.38 755.361 353.194V353.762H748.634V352.603H753.997C753.997 352.111 753.899 351.671 753.702 351.285C753.509 350.899 753.232 350.594 752.872 350.37C752.516 350.147 752.096 350.035 751.611 350.035C751.077 350.035 750.615 350.168 750.225 350.433C749.838 350.694 749.541 351.035 749.333 351.455C749.124 351.876 749.02 352.327 749.02 352.808V353.58C749.02 354.24 749.134 354.798 749.361 355.257C749.592 355.711 749.912 356.058 750.321 356.296C750.73 356.531 751.206 356.649 751.747 356.649C752.1 356.649 752.418 356.599 752.702 356.501C752.99 356.399 753.238 356.247 753.446 356.046C753.654 355.842 753.815 355.588 753.929 355.285L755.225 355.649C755.088 356.088 754.859 356.474 754.537 356.808C754.215 357.137 753.817 357.395 753.344 357.58C752.87 357.762 752.338 357.853 751.747 357.853ZM757.401 357.671V348.944H758.696V350.262H758.787C758.946 349.83 759.234 349.48 759.651 349.211C760.067 348.942 760.537 348.808 761.06 348.808C761.158 348.808 761.281 348.81 761.429 348.813C761.577 348.817 761.689 348.823 761.764 348.83V350.194C761.719 350.183 761.615 350.166 761.452 350.143C761.293 350.116 761.124 350.103 760.946 350.103C760.522 350.103 760.143 350.192 759.81 350.37C759.48 350.544 759.219 350.787 759.026 351.098C758.836 351.404 758.742 351.755 758.742 352.149V357.671H757.401Z" fill="black"/>
</svg>
